<svg xmlns="http://www.w3.org/2000/svg" xmlns:xlink="http://www.w3.org/1999/xlink" width="137" height="137.177" viewBox="0 0 137 137.177">
  <defs>
    <linearGradient id="linear-gradient" x1="0.754" y1="0.4" x2="0.259" y2="0.594" gradientUnits="objectBoundingBox">
      <stop offset="0"/>
      <stop offset="0.894" stop-opacity="0"/>
    </linearGradient>
    <linearGradient id="linear-gradient-2" x1="-18.108" y1="0.396" x2="-18.604" y2="0.59" xlink:href="#linear-gradient"/>
    <linearGradient id="linear-gradient-3" x1="0.468" y1="0.629" x2="0.544" y2="0.323" gradientUnits="objectBoundingBox">
      <stop offset="0"/>
      <stop offset="0.754" stop-opacity="0"/>
    </linearGradient>
    <linearGradient id="linear-gradient-4" x1="-18.405" y1="0.629" x2="-18.329" y2="0.323" xlink:href="#linear-gradient-3"/>
  </defs>
  <g id="Grupo_48" data-name="Grupo 48" transform="translate(-241.667 -241.333)">
    <g id="Grupo_10" data-name="Grupo 10" transform="translate(241.667 241.333)">
      <path id="Caminho_52" data-name="Caminho 52" d="M294.868,241.833,265.833,252.44V360.449l29.035-18.384Z" transform="translate(-259.425 -241.701)" fill="#ededed"/>
      <path id="Caminho_53" data-name="Caminho 53" d="M624,241.333l29.035,10.606V378.51L624,360.125Z" transform="translate(-522.62 -241.333)" fill="#ededed"/>
      <path id="Caminho_54" data-name="Caminho 54" d="M265.833,369.536,294.868,407.1V391.21l-29.035-40.064Z" transform="translate(-259.425 -322.028)" opacity="0.2" fill="url(#linear-gradient)" style="mix-blend-mode: multiply;isolation: isolate"/>
      <path id="Caminho_55" data-name="Caminho 55" d="M652.868,370.536,623.833,408.1V392.21l29.035-40.064Z" transform="translate(-522.498 -322.763)" opacity="0.2" fill="url(#linear-gradient-2)" style="mix-blend-mode: multiply;isolation: isolate"/>
      <path id="Caminho_56" data-name="Caminho 56" d="M294.868,308.66l-29.035-13.28v-4.547l29.035,12.418Z" transform="translate(-259.425 -277.708)" opacity="0.3" fill="url(#linear-gradient-3)"/>
      <path id="Caminho_57" data-name="Caminho 57" d="M310.078,393.761l-68.411-94.4v-12.2l68.411,31.289Z" transform="translate(-241.667 -275.013)" fill="#f6f6f6"/>
      <path id="Caminho_58" data-name="Caminho 58" d="M623.833,307.66l29.035-13.28v-4.547l-29.035,12.418Z" transform="translate(-522.498 -276.973)" opacity="0.3" fill="url(#linear-gradient-4)"/>
      <path id="Caminho_59" data-name="Caminho 59" d="M499.667,393.761l68.588-94.4v-12.2l-68.588,31.289Z" transform="translate(-431.255 -275.013)" fill="#ededed"/>
    </g>
    <g id="Grupo_11" data-name="Grupo 11" transform="translate(248.409 367.671)">
      <path id="Caminho_60" data-name="Caminho 60" d="M268.306,749.58a2.339,2.339,0,0,0-1.061.243,1.566,1.566,0,0,0-.113.387,2.7,2.7,0,0,0-.038.462,2.608,2.608,0,0,0,.038.447,1.561,1.561,0,0,0,.113.387,2.047,2.047,0,0,0,1.077.243,1.964,1.964,0,0,0,1.061-.243,2.082,2.082,0,0,0,.152-.834,2.125,2.125,0,0,0-.152-.849A2.372,2.372,0,0,0,268.306,749.58Z" transform="translate(-267.093 -741.15)" fill="#ededed"/>
      <path id="Caminho_61" data-name="Caminho 61" d="M284.2,731.34a2.339,2.339,0,0,0-1.061.243,1.564,1.564,0,0,0-.113.387,2.7,2.7,0,0,0-.038.462,2.6,2.6,0,0,0,.038.447,1.562,1.562,0,0,0,.113.387,2.044,2.044,0,0,0,1.077.243,1.961,1.961,0,0,0,1.061-.243,2.082,2.082,0,0,0,.152-.834,2.126,2.126,0,0,0-.152-.849A2.371,2.371,0,0,0,284.2,731.34Z" transform="translate(-278.773 -727.747)" fill="#ededed"/>
      <path id="Caminho_62" data-name="Caminho 62" d="M284.2,749.58a2.339,2.339,0,0,0-1.061.243,1.564,1.564,0,0,0-.113.387,2.7,2.7,0,0,0-.038.462,2.6,2.6,0,0,0,.038.447,1.559,1.559,0,0,0,.113.387,2.047,2.047,0,0,0,1.077.243,1.964,1.964,0,0,0,1.061-.243,2.082,2.082,0,0,0,.152-.834,2.125,2.125,0,0,0-.152-.849A2.371,2.371,0,0,0,284.2,749.58Z" transform="translate(-278.773 -741.15)" fill="#ededed"/>
      <path id="Caminho_63" data-name="Caminho 63" d="M307.709,717.789a8.131,8.131,0,0,0-1.334.106l-1.152,4.2q-.47,1.881-.576,2.593h-.106q-.106-.712-.576-2.593l-1.167-4.2a7.471,7.471,0,0,0-1.311-.106,8,8,0,0,0-1.342.106l-.8,10.31a3.936,3.936,0,0,0,.978.106,6.21,6.21,0,0,0,.948-.06l.288-4.867q.091-1.425.121-3.29h.106l1.774,6.6a7.146,7.146,0,0,0,2.077,0l1.774-6.6h.106q0,1.41.121,3.29l.288,4.867a6.211,6.211,0,0,0,.948.06,3.935,3.935,0,0,0,.978-.106l-.8-10.31A8.129,8.129,0,0,0,307.709,717.789Z" transform="translate(-290.789 -717.789)" fill="#ededed"/>
      <path id="Caminho_64" data-name="Caminho 64" d="M348.019,717.845a9.037,9.037,0,0,0-1.213.076l-3.381,10.2.076.106a2.739,2.739,0,0,0,.948.137,4.144,4.144,0,0,0,.9-.076l.713-2.365.743.015h2.123l.743-.015.425,1.38a1.789,1.789,0,0,0,.447.864,1.349,1.349,0,0,0,.879.227,2.051,2.051,0,0,0,1.054-.258l-3.32-10.2A6.225,6.225,0,0,0,348.019,717.845Zm.531,6.459h-1.3l-.682.015.591-1.925q.531-1.91.667-2.562h.091q.3,1.213.819,2.941l.455,1.546Z" transform="translate(-323.185 -717.83)" fill="#ededed"/>
      <path id="Caminho_65" data-name="Caminho 65" d="M385.1,726.567v-7.474a1.431,1.431,0,0,0-.288-.993,1.165,1.165,0,0,0-.895-.311h-.758l-.106.106v9.157a1.215,1.215,0,0,0,.318.887,1.152,1.152,0,0,0,.864.326h3.684a1.153,1.153,0,0,0,1.319-.986,4.22,4.22,0,0,0,.061-.773h-2.82Q385.748,726.507,385.1,726.567Z" transform="translate(-352.302 -717.789)" fill="#ededed"/>
      <path id="Caminho_66" data-name="Caminho 66" d="M410.091,718.958a3.064,3.064,0,0,0-.106-.826h-7.247a4.791,4.791,0,0,0,0,1.7h1.683l.925-.015-.015,1.122v7.55a6.946,6.946,0,0,0,2.047,0v-7.55l-.015-1.122.925.015H409a1.31,1.31,0,0,0,.834-.212A.8.8,0,0,0,410.091,718.958Z" transform="translate(-366.714 -718.041)" fill="#ededed"/>
      <path id="Caminho_67" data-name="Caminho 67" d="M432.757,717.845a9.04,9.04,0,0,0-1.213.076l-3.381,10.2.076.106a2.739,2.739,0,0,0,.948.137,4.147,4.147,0,0,0,.9-.076l.712-2.365.743.015h2.123l.743-.015.424,1.38a1.789,1.789,0,0,0,.447.864,1.35,1.35,0,0,0,.88.227,2.052,2.052,0,0,0,1.054-.258l-3.32-10.2A6.23,6.23,0,0,0,432.757,717.845Zm.531,6.459h-1.3l-.682.015.591-1.925q.531-1.91.667-2.562h.091q.3,1.213.819,2.941l.455,1.546Z" transform="translate(-385.454 -717.83)" fill="#ededed"/>
      <path id="Caminho_68" data-name="Caminho 68" d="M468.017,717.921v10.355a5.317,5.317,0,0,0,1,.076,6.114,6.114,0,0,0,1.046-.076V717.921a6.1,6.1,0,0,0-1.046-.076A5.3,5.3,0,0,0,468.017,717.921Z" transform="translate(-414.74 -717.83)" fill="#ededed"/>
      <path id="Caminho_69" data-name="Caminho 69" d="M492.624,717.789a8.128,8.128,0,0,0-1.334.106l-1.152,4.2q-.471,1.881-.576,2.593h-.106q-.107-.712-.576-2.593l-1.167-4.2a7.474,7.474,0,0,0-1.312-.106,8,8,0,0,0-1.342.106l-.8,10.31a3.935,3.935,0,0,0,.978.106,6.213,6.213,0,0,0,.948-.06l.288-4.867q.091-1.425.121-3.29h.106l1.774,6.6a7.148,7.148,0,0,0,2.077,0l1.774-6.6h.106q0,1.41.121,3.29l.288,4.867a6.2,6.2,0,0,0,.947.06,3.937,3.937,0,0,0,.978-.106l-.8-10.31A8.134,8.134,0,0,0,492.624,717.789Z" transform="translate(-426.672 -717.789)" fill="#ededed"/>
      <path id="Caminho_70" data-name="Caminho 70" d="M534.229,726.835l.015-.94v-1.789h3.548a2.923,2.923,0,0,0,0-1.668H535.23l-.986.015v-1.562l-.015-1.046h4.336a2.691,2.691,0,0,0,.167-.9,4.165,4.165,0,0,0-.076-.811h-6.322l-.106.106V727.3a1.231,1.231,0,0,0,.311.887,1.127,1.127,0,0,0,.857.326h4.26a1.14,1.14,0,0,0,1.3-.97,4.584,4.584,0,0,0,.045-.743h-3.714Z" transform="translate(-461.925 -718.041)" fill="#ededed"/>
      <path id="Caminho_71" data-name="Caminho 71" d="M572.017,719.384a3.422,3.422,0,0,0-1.342-1.13,4.824,4.824,0,0,0-2.115-.409q-.925,0-1.812.015t-1.766.046l-.106.091v10.2l.106.091q1.334.03,2.19.045t1.266.015a7.021,7.021,0,0,0,1.6-.182,2.837,2.837,0,0,0,1.236-.576,3.8,3.8,0,0,0,1.311-1.873,8.869,8.869,0,0,0,.341-2.615,9.771,9.771,0,0,0-.2-2.047A4.588,4.588,0,0,0,572.017,719.384Zm-1.235,4.746a5.447,5.447,0,0,1-.189,1,2.8,2.8,0,0,1-.385.819,1.839,1.839,0,0,1-.642.568,1.739,1.739,0,0,1-.536.152q-.324.045-.7.06t-.747.015q-.37,0-.657.015v-7.323q.3.015.71.015h.936a1.8,1.8,0,0,1,1.873,1.213,5.168,5.168,0,0,1,.31,1.137,8.285,8.285,0,0,1,.083,1.213Q570.834,723.592,570.782,724.13Z" transform="translate(-485.916 -717.83)" fill="#ededed"/>
      <path id="Caminho_72" data-name="Caminho 72" d="M602.669,717.921v10.355a5.322,5.322,0,0,0,1,.076,6.114,6.114,0,0,0,1.046-.076V717.921a6.1,6.1,0,0,0-1.046-.076A5.308,5.308,0,0,0,602.669,717.921Z" transform="translate(-513.687 -717.83)" fill="#ededed"/>
      <path id="Caminho_73" data-name="Caminho 73" d="M620.644,717.845a9.047,9.047,0,0,0-1.213.076l-3.381,10.2.076.106a2.741,2.741,0,0,0,.948.137,4.149,4.149,0,0,0,.9-.076l.712-2.365.743.015h2.123l.743-.015.425,1.38a1.789,1.789,0,0,0,.447.864,1.349,1.349,0,0,0,.879.227,2.051,2.051,0,0,0,1.054-.258l-3.32-10.2A6.228,6.228,0,0,0,620.644,717.845Zm.531,6.459h-1.3l-.682.015.591-1.925q.531-1.91.667-2.562h.091q.3,1.213.818,2.941l.455,1.546Z" transform="translate(-523.52 -717.83)" fill="#ededed"/>
      <path id="Caminho_74" data-name="Caminho 74" d="M655.629,731.34a2.336,2.336,0,0,0-1.061.243,1.567,1.567,0,0,0-.114.387,2.73,2.73,0,0,0-.038.462,2.637,2.637,0,0,0,.038.447,1.564,1.564,0,0,0,.114.387,2.042,2.042,0,0,0,1.076.243,1.961,1.961,0,0,0,1.061-.243,2.083,2.083,0,0,0,.152-.834,2.127,2.127,0,0,0-.152-.849A2.373,2.373,0,0,0,655.629,731.34Z" transform="translate(-551.713 -727.747)" fill="#ededed"/>
      <path id="Caminho_75" data-name="Caminho 75" d="M655.629,749.58a2.336,2.336,0,0,0-1.061.243,1.567,1.567,0,0,0-.114.387,2.732,2.732,0,0,0-.038.462,2.639,2.639,0,0,0,.038.447,1.562,1.562,0,0,0,.114.387,2.046,2.046,0,0,0,1.076.243,1.964,1.964,0,0,0,1.061-.243,2.083,2.083,0,0,0,.152-.834,2.126,2.126,0,0,0-.152-.849A2.373,2.373,0,0,0,655.629,749.58Z" transform="translate(-551.713 -741.15)" fill="#ededed"/>
      <path id="Caminho_76" data-name="Caminho 76" d="M672.657,749.823a2.37,2.37,0,0,0-1.076-.243,2.337,2.337,0,0,0-1.061.243,1.569,1.569,0,0,0-.114.387,2.706,2.706,0,0,0-.038.462,2.614,2.614,0,0,0,.038.447,1.564,1.564,0,0,0,.114.387,2.046,2.046,0,0,0,1.076.243,1.964,1.964,0,0,0,1.061-.243,2.084,2.084,0,0,0,.152-.834A2.127,2.127,0,0,0,672.657,749.823Z" transform="translate(-563.435 -741.15)" fill="#ededed"/>
    </g>
  </g>
</svg>
